<?xml version="1.0" encoding="UTF-8" standalone="no"?>
<svg
   xmlns:dc="http://purl.org/dc/elements/1.1/"
   xmlns:cc="http://creativecommons.org/ns#"
   xmlns:rdf="http://www.w3.org/1999/02/22-rdf-syntax-ns#"
   xmlns:svg="http://www.w3.org/2000/svg"
   xmlns="http://www.w3.org/2000/svg"
   xmlns:xlink="http://www.w3.org/1999/xlink"
   xmlns:sodipodi="http://sodipodi.sourceforge.net/DTD/sodipodi-0.dtd"
   xmlns:inkscape="http://www.inkscape.org/namespaces/inkscape"
   height="512pt"
   viewBox="0 0 512 512"
   width="512pt"
   version="1.1"
   id="svg3739"
   sodipodi:docname="user.svg"
   inkscape:version="0.92.4 (5da689c313, 2019-01-14)">
  <metadata
     id="metadata3745">
    <rdf:RDF>
      <cc:Work
         rdf:about="">
        <dc:format>image/svg+xml</dc:format>
        <dc:type
           rdf:resource="http://purl.org/dc/dcmitype/StillImage" />
      </cc:Work>
    </rdf:RDF>
  </metadata>
  <defs
     id="defs3743">
    <linearGradient
       id="linearGradient4604"
       inkscape:collect="always">
      <stop
         id="stop4600"
         offset="0"
         style="stop-color:#aa0000;stop-opacity:1;" />
      <stop
         id="stop4602"
         offset="1"
         style="stop-color:#d40000;stop-opacity:1" />
    </linearGradient>
    <linearGradient
       inkscape:collect="always"
       id="linearGradient4584">
      <stop
         style="stop-color:#aa0000;stop-opacity:1;"
         offset="0"
         id="stop4580" />
      <stop
         id="stop4606"
         offset="0.99902558"
         style="stop-color:#aa0000;stop-opacity:0.00392157;" />
      <stop
         style="stop-color:#aa0000;stop-opacity:0;"
         offset="1"
         id="stop4582" />
    </linearGradient>
    <linearGradient
       inkscape:collect="always"
       xlink:href="#linearGradient4604"
       id="linearGradient4586"
       x1="-1.843707"
       y1="264.06299"
       x2="548.78333"
       y2="260.03149"
       gradientUnits="userSpaceOnUse" />
    <linearGradient
       inkscape:collect="always"
       xlink:href="#linearGradient4584"
       id="linearGradient4598"
       gradientUnits="userSpaceOnUse"
       x1="-0.49987498"
       y1="256"
       x2="512.49987"
       y2="256" />
  </defs>
  <sodipodi:namedview
     pagecolor="#ffffff"
     bordercolor="#666666"
     borderopacity="1"
     objecttolerance="10"
     gridtolerance="10"
     guidetolerance="10"
     inkscape:pageopacity="0"
     inkscape:pageshadow="2"
     inkscape:window-width="1280"
     inkscape:window-height="961"
     id="namedview3741"
     showgrid="false"
     inkscape:zoom="1.1162109"
     inkscape:cx="385.03709"
     inkscape:cy="341.33333"
     inkscape:window-x="-8"
     inkscape:window-y="-8"
     inkscape:window-maximized="1"
     inkscape:current-layer="svg3739" />
  <linearGradient
     id="a"
     gradientTransform="matrix(1 0 0 -1 0 -19430)"
     gradientUnits="userSpaceOnUse"
     x1="0"
     x2="512"
     y1="-19686"
     y2="-19686">
    <stop
       offset="0"
       stop-color="#00f38d"
       id="stop3730" />
    <stop
       offset="1"
       stop-color="#009eff"
       id="stop3732" />
  </linearGradient>
  <path
     d="m512 256c0 141.386719-114.613281 256-256 256s-256-114.613281-256-256 114.613281-256 256-256 256 114.613281 256 256zm0 0"
     fill="url(#a)"
     id="path3735"
     style="fill:url(#linearGradient4598);fill-opacity:1;stroke:url(#linearGradient4586);stroke-width:0.99974997;stroke-miterlimit:4;stroke-dasharray:none;stroke-opacity:1" />
  <path
     d="m314.203125 247.9375c23.515625-17.710938 38.75-45.851562 38.75-77.488281 0-53.457031-43.492187-96.949219-96.953125-96.949219-53.457031 0-96.949219 43.492188-96.949219 96.949219 0 31.636719 15.230469 59.777343 38.746094 77.488281-62.960937 23.632812-107.894531 84.445312-107.894531 155.5625h30c0-75.046875 61.054687-136.097656 136.101562-136.097656 75.042969 0 136.097656 61.050781 136.097656 136.097656h30c-.003906-71.117188-44.933593-131.929688-107.898437-155.5625zm-125.152344-77.488281c0-36.917969 30.03125-66.949219 66.949219-66.949219s66.949219 30.03125 66.949219 66.949219-30.03125 66.953125-66.949219 66.953125-66.949219-30.035156-66.949219-66.953125zm0 0"
     fill="#fff"
     id="path3737" />
</svg>
